<?xml version="1.0" encoding="utf-8"?>
<!-- Generator: Adobe Illustrator 19.1.0, SVG Export Plug-In . SVG Version: 6.00 Build 0)  -->
<svg version="1.1" id="Layer_1" xmlns="http://www.w3.org/2000/svg" xmlns:xlink="http://www.w3.org/1999/xlink" x="0px" y="0px"
	 viewBox="0 0 436 105" style="enable-background:new 0 0 436 105;" xml:space="preserve">
<style type="text/css">
	.st0{fill:#FFFFFF;}
	.st1{fill:#01B0BA;}
</style>
<g>
	<g>
		<path class="st0" d="M208.4,79.9h-9.1l-2.6-7.7h-13.4l-2.6,7.7h-9.1l12.8-36h11.5L208.4,79.9z M190,51l-4.8,14.1h9.4L190,51z
			 M227.2,79.9H218v-36h14.4c9.6,0,14.6,4.4,14.6,11.4c0,4.8-2.5,8.5-7.4,10.4l8,14.2h-9.1l-7.2-12.1l-4.2,0.3V79.9z M231.7,61.3
			c3.9-0.3,6-1.9,6-5.4c0-3.2-2.2-4.7-6.8-4.7h-3.8v10.2L231.7,61.3z M284.6,53.4c-2.7-1.6-5.9-2.6-9.1-2.6c-6.2,0-10.2,4.2-10.2,11
			c0,6.8,3.8,11.2,10.3,11.2c3.5,0,6.8-1.2,9.5-2.9l1.9,8.1c-2.8,1.6-7.6,2.6-11.8,2.6c-11.5,0-19.1-6.6-19.1-18.7
			c0-11.6,7.5-19,19.4-19c4.4,0,8.6,1.1,11.9,2.7L284.6,53.4z M313.2,80.8c-10.6,0-18.8-6.6-18.8-18.8c0-11.4,8.2-18.9,18.9-18.9
			c10.7,0,18.8,6.6,18.8,18.7C332.1,73.2,323.9,80.8,313.2,80.8 M313.2,50.4c-6.1,0-9.6,4.6-9.6,11.3c0,6.9,3.6,11.6,9.7,11.6
			c6,0,9.6-4.7,9.6-11.4C322.9,55.1,319.3,50.4,313.2,50.4 M366.6,43.9h8.6v36h-9.9l-14.9-23.3v23.3h-8.6v-36h9.9l15,23.4V43.9z
			 M385.2,43.9h9.2v36h-9.2V43.9z M432.7,53.4c-2.7-1.6-5.9-2.6-9.1-2.6c-6.2,0-10.2,4.2-10.2,11c0,6.8,3.8,11.2,10.3,11.2
			c3.5,0,6.8-1.2,9.5-2.9l1.9,8.1c-2.8,1.6-7.6,2.6-11.8,2.6c-11.5,0-19.1-6.6-19.1-18.7c0-11.6,7.5-19,19.4-19
			c4.4,0,8.6,1.1,11.9,2.7L432.7,53.4z"/>
		<path class="st1" d="M103.5,104.6L71.2,86l-32.3,18.6c-0.9,0.5-2.1,0.5-3,0L1.5,84.7C0.6,84.2,0,83.2,0,82.1V42.4
			c0-1.1,0.6-2.1,1.5-2.6L69.7,0.4c0.9-0.5,2.1-0.5,3,0l68.2,39.4c0.9,0.5,1.5,1.5,1.5,2.6l0,39.8c0,1.1-0.6,2-1.5,2.6l-34.4,19.9
			C105.6,105.1,104.4,105.1,103.5,104.6 M37.4,97.1l26.5-15.3L37.4,66.5L10.9,81.8L37.4,97.1z M108.6,95l26.5-15.3V49.1l-26.5,15.3
			L108.6,95z M101.4,95V64.4L71.2,47L44.7,62.3L101.4,95z M7.3,75.4l22.9-13.2L7.3,49.1V75.4z M37.4,58l30.1-17.4V10L10.9,42.7
			L37.4,58z M105,58l26.5-15.3L74.8,10l0,30.6L105,58z"/>
	</g>
</g>
</svg>
